<svg xmlns="http://www.w3.org/2000/svg" version="1.1" xmlns:xlink="http://www.w3.org/1999/xlink" xmlns:svgjs="http://svgjs.com/svgjs" width="512" height="512" x="0" y="0" viewBox="0 0 60 60" style="enable-background:new 0 0 512 512" xml:space="preserve" class=""><g><path xmlns="http://www.w3.org/2000/svg" d="m43 44.34v12.66a2.006 2.006 0 0 1 -2 2h-38a2.006 2.006 0 0 1 -2-2v-54a2.006 2.006 0 0 1 2-2h32l8 8z" fill="#ecf0f1" data-original="#ecf0f1" class=""></path><path xmlns="http://www.w3.org/2000/svg" d="m43 9h-6a2.006 2.006 0 0 1 -2-2v-6z" fill="#bdc3c7" data-original="#bdc3c7"></path><path xmlns="http://www.w3.org/2000/svg" d="m50.313 29.823a10.87 10.87 0 0 0 4.187-1.109.691.691 0 0 1 .93.915 22.036 22.036 0 0 1 -4.56 6.3c-4.537 4.532-11.386 3.735-11.386 3.735a11.69 11.69 0 0 0 5.671 1.658.687.687 0 0 1 .411 1.217c-3.176 2.508-10.836 7.407-18.982 3.9-3.608-8.311 2.55-17.979 5.4-21.79a.685.685 0 0 1 1.231.377 11.656 11.656 0 0 0 1.664 5.533 12.307 12.307 0 0 1 3.76-9.84c5.721-5.699 14.191-3.287 18.231-11.33a.686.686 0 0 1 1.275.1 17.664 17.664 0 0 1 -2 15.094 16.227 16.227 0 0 1 -5.832 5.24z" fill="#f3d55b" data-original="#f3d55b" class=""></path><path xmlns="http://www.w3.org/2000/svg" d="m23 51a1 1 0 0 1 -.706-1.708l26.048-25.952a1 1 0 1 1 1.412 1.416l-26.048 25.952a1 1 0 0 1 -.706.292z" fill="#f0c419" data-original="#f0c419" class=""></path><g xmlns="http://www.w3.org/2000/svg" fill="#547580"><path d="m37 15h-30a1 1 0 0 1 0-2h30a1 1 0 0 1 0 2z" fill="#547580" data-original="#547580" class=""></path><path d="m33 21h-26a1 1 0 0 1 0-2h26a1 1 0 0 1 0 2z" fill="#547580" data-original="#547580" class=""></path><path d="m26 27h-19a1 1 0 0 1 0-2h19a1 1 0 0 1 0 2z" fill="#547580" data-original="#547580" class=""></path><path d="m23 33h-16a1 1 0 0 1 0-2h16a1 1 0 0 1 0 2z" fill="#547580" data-original="#547580" class=""></path><path d="m21 39h-14a1 1 0 0 1 0-2h14a1 1 0 0 1 0 2z" fill="#547580" data-original="#547580" class=""></path><path d="m21 45h-14a1 1 0 0 1 0-2h14a1 1 0 0 1 0 2z" fill="#547580" data-original="#547580" class=""></path><path d="m18 51h-11a1 1 0 0 1 0-2h11a1 1 0 0 1 0 2z" fill="#547580" data-original="#547580" class=""></path></g></g></svg>